<svg xmlns="http://www.w3.org/2000/svg" width="120" height="14.03" viewBox="0 0 120 14.03">
  <defs>
    <style>
      .cls-1 {
        fill: #0080c8;
        fill-rule: evenodd;
      }
    </style>
  </defs>
  <path id="Wave_Doodle" data-name="Wave Doodle" class="cls-1" d="M1018.89,1356.28a7.03,7.03,0,0,1-5.04-11.89c-0.28-.01-0.56-0.02-0.85-0.02-5.43,0-8.13,2.74-10.99,5.63-3.056,3.09-6.215,6.28-12.571,6.28a7.036,7.036,0,0,1-5.044-11.89c-0.277-.01-0.558-0.02-0.846-0.02-5.424,0-8.128,2.73-10.991,5.63-3.054,3.09-6.214,6.28-12.57,6.28a7.035,7.035,0,0,1-5.043-11.89c-0.277-.01-0.559-0.02-0.847-0.02-5.423,0-8.126,2.73-10.989,5.63-3.055,3.09-6.214,6.28-12.57,6.28a7.036,7.036,0,0,1-5.044-11.89c-0.276-.01-0.558-0.02-0.846-0.02-5.425,0-8.129,2.74-10.992,5.63-3.054,3.09-6.213,6.28-12.568,6.28a1.065,1.065,0,1,1,0-2.13c5.423,0,8.126-2.74,10.989-5.63,3.056-3.09,6.214-6.28,12.571-6.28a15.67,15.67,0,0,1,3.934.48,1.063,1.063,0,0,1,.147,2.02,4.9,4.9,0,0,0,1.809,9.41c5.424,0,8.128-2.74,10.991-5.63,3.054-3.09,6.213-6.28,12.568-6.28a15.667,15.667,0,0,1,3.935.48,1.076,1.076,0,0,1,.81.96,1.053,1.053,0,0,1-.663,1.05,4.907,4.907,0,0,0,1.808,9.42c5.424,0,8.128-2.74,10.991-5.63,3.054-3.09,6.213-6.28,12.57-6.28a15.659,15.659,0,0,1,3.934.48,1.078,1.078,0,0,1,.81.96,1.052,1.052,0,0,1-.664,1.05,4.907,4.907,0,0,0,1.81,9.42c5.423,0,8.127-2.74,10.991-5.63,3.05-3.09,6.21-6.28,12.57-6.28a15.615,15.615,0,0,1,3.93.48,1.075,1.075,0,0,1,.81.96,1.061,1.061,0,0,1-.66,1.06,4.9,4.9,0,0,0,1.81,9.41,1.066,1.066,0,1,1,0,2.13" transform="translate(-900 -1342.25)"/>
</svg>
